<?xml version="1.0" encoding="UTF-8" standalone="no"?>
<!-- Created with Inkscape (http://www.inkscape.org/) -->

<svg
   width="150"
   height="130"
   viewBox="0 0 39.6875 34.395834"
   version="1.1"
   id="svg5"
   inkscape:version="1.1 (c68e22c387, 2021-05-23)"
   sodipodi:docname="shplub_squished_squint1.svg"
   inkscape:export-filename="D:\Documents 2\JS Projects\React\shplub\docs\shplub_neutral.png"
   inkscape:export-xdpi="96"
   inkscape:export-ydpi="96"
   xmlns:inkscape="http://www.inkscape.org/namespaces/inkscape"
   xmlns:sodipodi="http://sodipodi.sourceforge.net/DTD/sodipodi-0.dtd"
   xmlns="http://www.w3.org/2000/svg"
   xmlns:svg="http://www.w3.org/2000/svg">
  <sodipodi:namedview
     id="namedview7"
     pagecolor="#ffffff"
     bordercolor="#999999"
     borderopacity="1"
     inkscape:pageshadow="0"
     inkscape:pageopacity="0"
     inkscape:pagecheckerboard="0"
     inkscape:document-units="mm"
     showgrid="false"
     units="px"
     inkscape:zoom="4.192802"
     inkscape:cx="78.110056"
     inkscape:cy="73.816984"
     inkscape:window-width="1920"
     inkscape:window-height="1017"
     inkscape:window-x="-8"
     inkscape:window-y="-8"
     inkscape:window-maximized="1"
     inkscape:current-layer="layer2"
     inkscape:snap-global="false"
     inkscape:object-paths="true"
     height="130px" />
  <defs
     id="defs2">
    <inkscape:path-effect
       effect="skeletal"
       id="path-effect24662"
       is_visible="true"
       lpeversion="1"
       pattern="m 9.6172313,-0.391296 c 0,-2.7490448 2.2318427,-4.980154 4.9817917,-4.980154 2.749949,0 4.981793,2.2311092 4.981793,4.980154 0,2.7490447 -2.231844,4.9801536 -4.981793,4.9801536 -2.749949,0 -4.9817917,-2.2311089 -4.9817917,-4.9801536 z"
       copytype="single_stretched"
       prop_scale="0.049210132"
       scale_y_rel="false"
       spacing="0"
       normal_offset="0"
       tang_offset="0"
       prop_units="false"
       vertical_pattern="false"
       hide_knot="false"
       fuse_tolerance="0" />
    <inkscape:path-effect
       effect="skeletal"
       id="path-effect24139"
       is_visible="true"
       lpeversion="1"
       pattern="m 0.11197183,-0.391296 c 0,-2.7490448 2.23184267,-4.980154 4.98179187,-4.980154 2.7499492,0 4.9817923,2.2311092 4.9817923,4.980154 0,2.7490447 -2.2318431,4.9801536 -4.9817923,4.9801536 -2.7499492,0 -4.98179187,-2.2311089 -4.98179187,-4.9801536 z"
       copytype="single_stretched"
       prop_scale="0.049210132"
       scale_y_rel="false"
       spacing="0"
       normal_offset="0"
       tang_offset="0"
       prop_units="false"
       vertical_pattern="false"
       hide_knot="false"
       fuse_tolerance="0" />
    <inkscape:path-effect
       effect="skeletal"
       id="path-effect23513"
       is_visible="true"
       lpeversion="1"
       pattern="m 9.6310479,4.9040924 c 0,-2.7556603 2.2364771,-4.99213839 4.9921381,-4.99213839 2.75566,0 4.992138,2.23647809 4.992138,4.99213839 0,2.7556604 -2.236478,4.9921381 -4.992138,4.9921381 -2.755661,0 -4.9921381,-2.2364778 -4.9921381,-4.9921381 z"
       copytype="single_stretched"
       prop_scale="0.057496241"
       scale_y_rel="false"
       spacing="0"
       normal_offset="0"
       tang_offset="0"
       prop_units="false"
       vertical_pattern="false"
       hide_knot="false"
       fuse_tolerance="0" />
    <inkscape:path-effect
       effect="skeletal"
       id="path-effect22312"
       is_visible="true"
       lpeversion="1"
       pattern="M 0,4.9921384 C 0,2.236478 2.236478,0 4.9921384,0 c 2.7556603,0 4.9921383,2.236478 4.9921383,4.9921384 0,2.7556603 -2.236478,4.9921383 -4.9921383,4.9921383 C 2.236478,9.9842767 0,7.7477987 0,4.9921384 Z"
       copytype="single_stretched"
       prop_scale="0.057496241"
       scale_y_rel="false"
       spacing="0"
       normal_offset="0"
       tang_offset="0"
       prop_units="false"
       vertical_pattern="false"
       hide_knot="false"
       fuse_tolerance="0" />
    <inkscape:path-effect
       effect="skeletal"
       id="path-effect20325"
       is_visible="true"
       lpeversion="1"
       pattern="m 0.04112678,7.1707065 c 0,-2.1506268 2.23184282,-3.8960629 4.98179212,-3.8960629 2.7499491,0 4.9817921,1.7454361 4.9817921,3.8960629 0,2.1506267 -2.231843,3.8960625 -4.9817921,3.8960625 -2.7499493,0 -4.98179212,-1.7454358 -4.98179212,-3.8960625 z"
       copytype="single_stretched"
       prop_scale="0.12024939"
       scale_y_rel="false"
       spacing="0"
       normal_offset="0"
       tang_offset="0"
       prop_units="false"
       vertical_pattern="false"
       hide_knot="false"
       fuse_tolerance="0" />
  </defs>
  <g
     inkscape:label="body"
     inkscape:groupmode="layer"
     id="layer1"
     style="opacity:0.9">
    <path
       id="path924"
       style="opacity:1;fill:#2f9aeb;stroke:#1c5c8d;stroke-width:1.05833;stroke-linecap:round;stroke-linejoin:round;paint-order:fill markers stroke;stop-color:#000000"
       d="m 39.158335,22.478338 c 0,8.342357 -4.907005,11.38833 -19.314585,11.38833 -14.4075795,0 -19.31458497,-3.045973 -19.31458497,-11.38833 -9e-8,-8.342358 8.64743427,-14.6921923 19.31458497,-14.6921923 10.667151,0 19.314585,6.3498343 19.314585,14.6921923 z"
       sodipodi:nodetypes="szsss" />
    <path
       id="path12052"
       style="opacity:1;fill:#1c5c8d;fill-opacity:1;stroke:none;stroke-width:1.05833;stroke-linecap:round;stroke-linejoin:round;paint-order:fill markers stroke;stop-color:#000000"
       d="m 38.645411,22.793721 c -0.928926,3.236118 -2.757707,5.637503 -5.709239,7.396583 -2.599437,1.549238 -6.14585,2.614917 -10.809963,3.2474 5.891868,-0.153683 9.942814,-0.906181 12.499402,-2.42988 2.800283,-1.668938 3.95996,-4.282373 4.0198,-8.214103 z"
       sodipodi:nodetypes="cscsc" />
    <path
       style="fill:#7ac1f7;fill-opacity:0.901961;stroke:none;stroke-width:0.264583px;stroke-linecap:butt;stroke-linejoin:miter;stroke-opacity:1"
       d="M 4.967514,15.186942 C 4.7942724,14.994933 6.4263147,13.085381 9.0231928,11.480598 11.620071,9.875815 14.136466,9.5058886 14.196297,9.7574839 14.256128,10.009079 12.000868,10.732469 9.5174006,12.277665 7.0339333,13.822862 5.1407556,15.378951 4.967514,15.186942 Z"
       id="path20323"
       inkscape:path-effect="#path-effect20325"
       inkscape:original-d="m 4.967514,15.186942 c 4.1417818,-3.736963 7.171709,-4.940274 9.228783,-5.4294581" />
  </g>
  <g
     inkscape:groupmode="layer"
     id="layer2"
     inkscape:label="eyes">
    <path
       id="path985"
       style="fill:#000000;fill-rule:nonzero;stroke:none;stroke-width:0.264583px;stroke-linecap:butt;stroke-linejoin:miter;stroke-opacity:1"
       d="m 12.391902,13.791481 c -0.11772,-0.03528 -0.674678,-0.0071 -0.843876,0.40392 -0.169198,0.410992 0.09855,0.639667 0.361218,0.74725 0.909624,0.372567 2.271063,0.829692 3.733622,1.471551 0.670228,0.294137 1.175924,0.489963 1.623674,0.70181 0.129294,0.06117 0.228968,0.132475 0.305407,0.190026 -0.07641,0.05752 -0.176254,0.128919 -0.305407,0.190026 -0.44775,0.211848 -0.953446,0.407672 -1.623674,0.701809 -1.462559,0.641859 -3.007867,1.003404 -3.881873,1.448792 -0.166622,0.0849 -0.354121,0.364192 -0.212967,0.770011 0.141153,0.405818 0.654239,0.388528 0.695625,0.381158 1.076809,-0.191734 2.304237,-1.046697 3.772319,-2.07716 0.547515,-0.384306 1.055266,-0.768645 1.395781,-1.017143 0.208267,-0.151986 0.374693,-0.212722 0.374693,-0.397493 0,-0.184771 -0.166426,-0.245506 -0.374693,-0.397494 -0.340515,-0.248497 -0.848266,-0.632835 -1.395781,-1.017141 -1.468082,-1.030464 -2.374616,-1.725496 -3.624068,-2.099922 z"
       sodipodi:nodetypes="szssscssszssszsss" />
    <path
       id="path4859"
       style="fill:#000000;fill-rule:nonzero;stroke:none;stroke-width:0.264583px;stroke-linecap:butt;stroke-linejoin:miter;stroke-opacity:1"
       d="m 27.295386,13.791481 c 0.11772,-0.03528 0.674678,-0.0071 0.843876,0.403919 0.169198,0.410993 -0.09856,0.639668 -0.361218,0.747251 -0.909624,0.372567 -2.271064,0.829692 -3.733623,1.471551 -0.670228,0.294137 -1.175923,0.489963 -1.623673,0.70181 -0.129294,0.06117 -0.228968,0.132475 -0.305408,0.190026 0.07641,0.05752 0.176255,0.128919 0.305408,0.190025 0.44775,0.211848 0.953445,0.407673 1.623673,0.70181 1.462559,0.641859 3.007867,1.003404 3.881874,1.448791 0.166622,0.0849 0.354121,0.364193 0.212967,0.770012 -0.141154,0.405818 -0.654239,0.388528 -0.695625,0.381158 -1.07681,-0.191735 -2.304238,-1.046697 -3.772319,-2.07716 -0.547515,-0.384306 -1.055266,-0.768645 -1.395781,-1.017143 -0.208267,-0.151986 -0.374694,-0.212723 -0.374694,-0.397493 0,-0.184771 0.166427,-0.245507 0.374694,-0.397494 0.340515,-0.248497 0.848266,-0.632836 1.395781,-1.017141 1.468081,-1.030464 2.374616,-1.725496 3.624068,-2.099922 z"
       sodipodi:nodetypes="szssscssszssszsss" />
  </g>
</svg>
