<?xml version="1.0" encoding="UTF-8" standalone="no"?>
<!-- Created with Inkscape (http://www.inkscape.org/) -->

<svg
   width="1000"
   height="600"
   viewBox="0 0 264.58333 158.75001"
   version="1.1"
   id="svg5"
   inkscape:version="1.1 (c68e22c387, 2021-05-23)"
   sodipodi:docname="happy_bday.svg"
   inkscape:export-filename="D:\Documents 2\JS Projects\React\shplub\docs\shplub_neutral.png"
   inkscape:export-xdpi="96"
   inkscape:export-ydpi="96"
   xmlns:inkscape="http://www.inkscape.org/namespaces/inkscape"
   xmlns:sodipodi="http://sodipodi.sourceforge.net/DTD/sodipodi-0.dtd"
   xmlns="http://www.w3.org/2000/svg"
   xmlns:svg="http://www.w3.org/2000/svg">
  <sodipodi:namedview
     id="namedview7"
     pagecolor="#ffffff"
     bordercolor="#999999"
     borderopacity="1"
     inkscape:pageshadow="0"
     inkscape:pageopacity="0"
     inkscape:pagecheckerboard="0"
     inkscape:document-units="mm"
     showgrid="false"
     units="px"
     inkscape:zoom="0.52410025"
     inkscape:cx="235.64194"
     inkscape:cy="92.539547"
     inkscape:window-width="1920"
     inkscape:window-height="1017"
     inkscape:window-x="-8"
     inkscape:window-y="-8"
     inkscape:window-maximized="1"
     inkscape:current-layer="layer4"
     inkscape:snap-global="false"
     inkscape:object-paths="true"
     height="130px"
     width="800px" />
  <defs
     id="defs2">
    <inkscape:path-effect
       effect="skeletal"
       id="path-effect24662"
       is_visible="true"
       lpeversion="1"
       pattern="m 9.6172313,-0.391296 c 0,-2.7490448 2.2318427,-4.980154 4.9817917,-4.980154 2.749949,0 4.981793,2.2311092 4.981793,4.980154 0,2.7490447 -2.231844,4.9801536 -4.981793,4.9801536 -2.749949,0 -4.9817917,-2.2311089 -4.9817917,-4.9801536 z"
       copytype="single_stretched"
       prop_scale="0.049210132"
       scale_y_rel="false"
       spacing="0"
       normal_offset="0"
       tang_offset="0"
       prop_units="false"
       vertical_pattern="false"
       hide_knot="false"
       fuse_tolerance="0" />
    <inkscape:path-effect
       effect="skeletal"
       id="path-effect24139"
       is_visible="true"
       lpeversion="1"
       pattern="m 0.11197183,-0.391296 c 0,-2.7490448 2.23184267,-4.980154 4.98179187,-4.980154 2.7499492,0 4.9817923,2.2311092 4.9817923,4.980154 0,2.7490447 -2.2318431,4.9801536 -4.9817923,4.9801536 -2.7499492,0 -4.98179187,-2.2311089 -4.98179187,-4.9801536 z"
       copytype="single_stretched"
       prop_scale="0.049210132"
       scale_y_rel="false"
       spacing="0"
       normal_offset="0"
       tang_offset="0"
       prop_units="false"
       vertical_pattern="false"
       hide_knot="false"
       fuse_tolerance="0" />
    <inkscape:path-effect
       effect="skeletal"
       id="path-effect23513"
       is_visible="true"
       lpeversion="1"
       pattern="m 9.6310479,4.9040924 c 0,-2.7556603 2.2364771,-4.99213839 4.9921381,-4.99213839 2.75566,0 4.992138,2.23647809 4.992138,4.99213839 0,2.7556604 -2.236478,4.9921381 -4.992138,4.9921381 -2.755661,0 -4.9921381,-2.2364778 -4.9921381,-4.9921381 z"
       copytype="single_stretched"
       prop_scale="0.057496241"
       scale_y_rel="false"
       spacing="0"
       normal_offset="0"
       tang_offset="0"
       prop_units="false"
       vertical_pattern="false"
       hide_knot="false"
       fuse_tolerance="0" />
    <inkscape:path-effect
       effect="skeletal"
       id="path-effect22312"
       is_visible="true"
       lpeversion="1"
       pattern="M 0,4.9921384 C 0,2.236478 2.236478,0 4.9921384,0 c 2.7556603,0 4.9921383,2.236478 4.9921383,4.9921384 0,2.7556603 -2.236478,4.9921383 -4.9921383,4.9921383 C 2.236478,9.9842767 0,7.7477987 0,4.9921384 Z"
       copytype="single_stretched"
       prop_scale="0.057496241"
       scale_y_rel="false"
       spacing="0"
       normal_offset="0"
       tang_offset="0"
       prop_units="false"
       vertical_pattern="false"
       hide_knot="false"
       fuse_tolerance="0" />
    <inkscape:path-effect
       effect="skeletal"
       id="path-effect20325"
       is_visible="true"
       lpeversion="1"
       pattern="m 169.01093,35.079445 c 0,-1.512724 1.23236,-2.740442 2.75079,-2.740442 1.51843,0 2.75079,1.227718 2.75079,2.740442 0,1.512725 -1.23236,2.740443 -2.75079,2.740443 -1.51843,0 -2.75079,-1.227718 -2.75079,-2.740443 z"
       copytype="single_stretched"
       prop_scale="0.12024939"
       scale_y_rel="false"
       spacing="0"
       normal_offset="0"
       tang_offset="0"
       prop_units="false"
       vertical_pattern="false"
       hide_knot="false"
       fuse_tolerance="0" />
  </defs>
  <g
     inkscape:groupmode="layer"
     id="layer4"
     inkscape:label="text">
    <path
       style="color:#000000;fill:#ffcc00;stroke:#d4aa00;stroke-width:1;-inkscape-stroke:none"
       d="M 12.775911,4.3504921 1.0094966,5.6202648 7.5775152,60.342286 l 0.00762,0.06825 11.7741248,-1.201531 -0.0078,-0.06825 -2.734105,-25.563589 6.699068,-0.05848 1.862995,16.760492 11.776693,-1.177158 -4.902887,-44.0934757 -0.01028,-0.1072448 -0.0078,-0.058497 -11.781833,1.1162283 1.631726,16.3412972 -6.948326,0.06094 z"
       id="path8277" />
    <path
       style="color:#000000;fill:#ffcc00;stroke:#d4aa00;stroke-width:1;-inkscape-stroke:none"
       d="m 40.60598,62.925512 -11.766414,1.269771 6.56802,54.722027 0.0078,0.0682 11.774124,-1.20153 -0.0078,-0.0682 -2.734105,-25.563594 6.69907,-0.05606 1.862994,16.760494 11.776694,-1.17716 -4.902887,-44.095912 -0.01028,-0.107245 -0.0078,-0.05848 -11.781833,1.118666 1.631727,16.3413 -6.948327,0.05848 z"
       id="path8277-3" />
    <path
       style="color:#000000;fill:#ffcc00;stroke:#d4aa00;stroke-width:1;-inkscape-stroke:none"
       d="M 50.187011,2.2329571 C 49.311829,2.1670588 48.445088,2.2033882 47.614792,2.3523888 40.972426,3.5442702 37.2805,8.8966059 35.91005,14.962363 34.707519,20.284877 33.891839,29.464535 33.2222,37.84018 32.552559,46.215824 32.135237,53.472258 32.135237,53.472258 l 11.822948,0.611732 c 0,0 0.412806,-7.153974 1.071542,-15.393234 0.01329,-0.167165 0.03518,-0.265564 0.04883,-0.43382 l 10.802797,0.246156 4.29388,15.29331 0.04369,0.160849 0.0027,0.0048 11.44264,-2.883186 c 0,0 0,-0.0048 0,-0.0048 l -0.01799,-0.06094 C 71.622566,50.928623 65.179866,27.855207 62.266952,14.962354 61.366778,10.978094 59.910903,7.7715887 57.389762,5.3622973 55.498906,3.5553292 52.812582,2.4306803 50.187041,2.2329571 Z M 49.387849,13.904618 c 0.373714,0.578394 0.87439,1.524748 1.300243,3.409615 0.64666,2.862191 1.642042,6.484539 2.500265,9.892518 l -6.819843,-0.153537 c 0.39734,-3.429703 0.760433,-8.145873 1.120366,-9.738976 0.443118,-1.961284 1.399166,-2.910802 1.898969,-3.409615 z"
       id="path9427" />
    <path
       style="color:#000000;fill:#ffcc00;stroke:#d4aa00;stroke-width:1;-inkscape-stroke:none"
       d="m 78.740535,3.0694736 c -1.600331,0.02722 -3.146004,0.1586789 -4.59196,0.3460798 -2.891911,0.3748141 -4.923619,0.585242 -7.606156,2.0886636 -2.216151,1.2420364 -2.758945,2.752336 -3.14011,3.7825052 -0.381162,1.0301688 -0.524143,1.8914008 -0.634701,2.7856978 -0.221117,1.788592 -0.227017,3.695955 -0.151615,5.861419 0.150818,4.33093 0.695158,9.592291 1.349065,14.783939 1.307813,10.3833 3.070728,20.433326 3.070728,20.433326 l 11.679046,-1.840072 c 0,0 -1.314133,-8.311525 -2.412899,-16.07077 1.647146,-0.239679 3.468256,-0.553644 5.437374,-1.394069 4.6286,-1.975496 9.534215,-6.206995 12.835389,-13.389872 C 96.510542,16.2442 96.357741,11.157164 93.541698,7.9316482 90.725653,4.7061346 87.004364,3.7892182 83.666543,3.3424372 81.997632,3.1190467 80.340859,3.042255 78.74053,3.0694736 Z m 3.271162,11.3913834 c 1.61478,0.216144 2.159563,0.645696 2.150794,0.565426 -0.068,0.133255 -0.111368,0.223839 -0.441979,0.943189 -2.344427,5.101129 -4.827118,6.776411 -6.840402,7.635688 -0.681899,0.291034 -1.244567,0.370881 -1.829589,0.489873 -0.204343,-2.21571 -0.540163,-4.776018 -0.601296,-6.531646 -0.04291,-1.232073 0.01666,-1.948704 0.05396,-2.77351 0.619593,-0.16786 0.46228,-0.146653 1.248848,-0.248592 2.006479,-0.260056 4.450024,-0.322656 6.259661,-0.08042 z"
       id="path9429" />
    <path
       style="color:#000000;fill:#ffcc00;stroke:#d4aa00;stroke-width:1;-inkscape-stroke:none"
       d="m 104.22689,0.83326645 c -1.60034,0.0272204 -3.14343,0.15624151 -4.58939,0.34364245 -2.891924,0.3748142 -4.926187,0.5876866 -7.608726,2.091101 -2.21615,1.2420346 -2.756377,2.7523342 -3.13754,3.7825052 -0.381164,1.0301692 -0.524145,1.8914012 -0.634703,2.7856979 -0.221115,1.78859 -0.229586,3.695955 -0.154185,5.861419 0.150818,4.33093 0.697726,9.592291 1.351635,14.783939 1.307817,10.3833 3.068158,20.430888 3.068158,20.430888 l 11.681621,-1.837634 c 0,0 -1.31683,-8.312734 -2.41547,-16.070772 1.64755,-0.239607 3.46751,-0.553328 5.43737,-1.394067 4.62861,-1.975492 9.53676,-6.206994 12.83796,-13.389872 1.93586,-4.212125 1.78049,-9.2991592 -1.03557,-12.5246729 C 116.21199,2.4699293 112.49073,1.550572 109.1529,1.1037928 107.48398,0.88040399 105.82722,0.80604783 104.22688,0.83326645 Z M 107.49805,12.22465 c 1.61474,0.216139 2.1595,0.643212 2.15079,0.562989 -0.0679,0.133095 -0.11119,0.225881 -0.44197,0.945625 -2.34444,5.101129 -4.8271,6.776409 -6.84041,7.635687 -0.6819,0.291038 -1.24456,0.370881 -1.82958,0.489875 -0.20447,-2.216646 -0.540142,-4.777805 -0.601302,-6.534083 -0.04287,-1.230992 0.01684,-1.946521 0.05396,-2.771073 0.620132,-0.168091 0.463292,-0.146439 1.251422,-0.248594 2.00649,-0.260056 4.44744,-0.322654 6.25709,-0.08043 z"
       id="path9429-2" />
    <path
       style="color:#000000;fill:#ffcc00;stroke:#d4aa00;stroke-width:1;-inkscape-stroke:none"
       d="m 137.41723,5.1165167 c -1.63333,-0.010497 -3.18659,0.7436505 -3.99579,1.4257509 -1.61839,1.3642026 -1.60786,2.1367655 -1.76277,2.6126581 -0.61971,1.9035723 -0.32829,1.8713343 -0.33919,2.4615523 -0.0218,1.180439 0.03,2.595607 0.09,4.177328 0.0599,1.581723 0.13092,3.27805 0.16702,4.684261 0.0197,0.771193 0.0119,0.901171 0.003,1.394068 -2.73559,-2.598654 -6.23959,-8.471445 -6.77359,-14.464668 L 113.0061,8.3530946 c 0.84646,9.5002034 5.42152,17.5670054 11.15227,22.4025644 2.01616,1.701225 4.40221,3.237083 7.28237,3.685017 -0.26134,1.396385 -0.54158,2.760077 -0.90451,3.819062 -0.88014,2.568118 -1.92247,3.177366 -1.59061,3.068413 -2.27856,0.748074 -3.33459,0.603083 -3.63863,0.52643 -0.30402,-0.07666 -0.19477,-0.02747 -0.35974,-0.253466 -0.32995,-0.452017 -0.59102,-1.764521 -0.59102,-1.764521 l -11.83837,0.233971 c 0,0 -0.14722,4.032239 2.69299,7.923276 1.42011,1.945516 3.87936,3.913198 7.05368,4.713506 3.17433,0.80031 6.72664,0.488703 10.55353,-0.767711 5.23937,-1.720131 7.57537,-6.113266 8.97837,-10.206915 1.40296,-4.093645 1.99749,-8.608272 2.27927,-13.014544 0.28177,-4.406274 0.21021,-8.673523 0.0206,-12.044548 -0.0948,-1.685511 -0.22029,-3.139993 -0.35462,-4.308935 -0.13434,-1.168943 0.0278,-1.416683 -0.61671,-3.207331 h 0.002 c -0.0785,-0.2181439 -0.16854,-0.4622521 -0.37774,-0.8578872 -0.20928,-0.3956351 -0.3363,-0.9871912 -1.73965,-2.0106745 -0.70168,-0.5117417 -1.95903,-1.1617718 -3.59238,-1.1722846 z"
       id="path9566" />
    <path
       style="color:#000000;fill:#ffcc00;stroke:#d4aa00;stroke-width:1;-inkscape-stroke:none"
       d="m 231.49122,56.248573 c -1.63333,-0.0105 -3.1866,0.746086 -3.99578,1.428188 -1.61841,1.364203 -1.60785,2.134329 -1.7628,2.610221 -0.61968,1.90357 -0.32827,1.873772 -0.33919,2.463988 -0.0218,1.180439 0.03,2.595607 0.09,4.17733 0.0599,1.581722 0.13345,3.275613 0.16961,4.681824 0.0197,0.770454 0.009,0.901121 0,1.394067 -2.7356,-2.598653 -6.2396,-8.471445 -6.77357,-14.464669 l -11.79988,0.945627 c 0.84648,9.500205 5.42153,17.569444 11.15226,22.405004 2.01555,1.700708 4.40342,3.234084 7.28239,3.68258 -0.26137,1.396561 -0.54155,2.762401 -0.90452,3.8215 -0.88015,2.568123 -1.92247,3.174933 -1.59062,3.065972 -2.27855,0.748078 -3.33458,0.603079 -3.6386,0.526439 -0.30405,-0.07661 -0.19479,-0.02745 -0.35977,-0.253474 -0.32994,-0.452017 -0.59101,-1.764517 -0.59101,-1.764517 l -11.83836,0.233969 c 0,0 -0.14462,4.032236 2.69556,7.923278 1.42011,1.94552 3.87677,3.91564 7.05112,4.71595 3.17431,0.8003 6.72661,0.48869 10.55353,-0.76772 5.23936,-1.72013 7.57537,-6.115698 8.97834,-10.20935 1.40298,-4.093647 1.99751,-8.605837 2.27928,-13.012109 0.28177,-4.406274 0.21022,-8.673524 0.0206,-12.044548 -0.0948,-1.685513 -0.21772,-3.142431 -0.35204,-4.311374 -0.13434,-1.168944 0.0278,-1.414246 -0.61672,-3.204894 -0.0785,-0.218144 -0.16836,-0.464689 -0.37774,-0.860325 -0.20928,-0.395635 -0.33632,-0.987191 -1.73966,-2.010672 -0.70167,-0.511742 -1.95902,-1.161774 -3.59237,-1.172285 z"
       id="path9566-6" />
    <path
       style="color:#000000;fill:#ffcc00;stroke:#d4aa00;stroke-width:1;-inkscape-stroke:none"
       d="m 37.746163,61.288851 c -10.585578,0.244877 -19.206522,2.53179 -24.905021,7.170185 -2.8492494,2.319199 -5.1790626,5.750664 -4.969699,9.775534 0.2093636,4.02487 2.914124,7.400375 6.413841,9.738973 3.116671,2.082644 6.92536,4.196023 9.605341,6.197752 1.253546,0.936298 2.126526,1.795085 2.582495,2.356754 -0.06212,0.06437 -0.04221,0.06446 -0.123348,0.138913 -0.781983,0.717684 -2.234918,1.757278 -4.039485,2.878311 -3.609139,2.242067 -8.581281,4.853957 -13.2234047,7.998827 l 6.8840847,9.13943 c 3.8702,-2.62192 8.6425,-5.14461 12.82511,-7.74293 2.091305,-1.29915 4.047659,-2.60795 5.786843,-4.20413 1.739186,-1.59619 3.525561,-3.59557 3.995802,-6.673004 0.48052,-3.144694 -0.80698,-5.925295 -2.284417,-7.891591 -1.477433,-1.966298 -3.246852,-3.455745 -5.077621,-4.823182 -3.66154,-2.734876 -7.760077,-4.984693 -10.111563,-6.556016 -1.666455,-1.113569 -1.426733,-1.468293 -1.408167,-1.111355 0.01855,0.356939 -0.228392,0.18294 0.855694,-0.699472 2.168171,-1.764821 8.811157,-4.266784 17.481309,-4.467353 z"
       id="path10151" />
    <path
       style="color:#000000;fill:#ffcc00;stroke:#d4aa00;stroke-width:1;-inkscape-stroke:none"
       d="m 74.209061,60.741422 c -1.600329,0.02722 -3.143436,0.156242 -4.58939,0.343643 -2.891909,0.374814 -4.923618,0.587679 -7.606156,2.091101 -2.216151,1.242034 -2.758945,2.752336 -3.14011,3.782505 -0.381163,1.030169 -0.524143,1.891401 -0.634703,2.785698 -0.221115,1.78859 -0.229585,3.693517 -0.154185,5.858982 0.150818,4.33093 0.697729,9.594728 1.351635,14.786376 1.307812,10.383303 3.06816,20.430893 3.06816,20.430893 l 11.681615,-1.84008 c 0,0 -1.314134,-8.31152 -2.4129,-16.070768 1.647147,-0.239677 3.468254,-0.553642 5.437374,-1.394067 4.628598,-1.975498 9.534215,-6.204558 12.835387,-13.387435 1.935848,-4.212121 1.783049,-9.301595 -1.032998,-12.527111 -2.816043,-3.225512 -6.539902,-4.14243 -9.877722,-4.589211 -1.668911,-0.22339 -3.325686,-0.297744 -4.926014,-0.270526 z m 3.27116,11.391383 c 1.614729,0.216137 2.159508,0.643215 2.150796,0.562989 -0.06804,0.133327 -0.108887,0.224013 -0.439411,0.943189 -2.344424,5.10113 -4.827116,6.776414 -6.8404,7.635687 -0.68138,0.290815 -1.244963,0.373307 -1.829589,0.49231 -0.204462,-2.216644 -0.54014,-4.777804 -0.601298,-6.534081 -0.04287,-1.230985 0.01418,-1.946524 0.05139,-2.771076 0.620137,-0.16809 0.463299,-0.146438 1.251419,-0.248591 2.006477,-0.260056 4.447454,-0.322654 6.25709,-0.08042 z"
       id="path9429-9" />
    <path
       style="color:#000000;fill:#ffcc00;stroke:#d4aa00;stroke-width:1;-inkscape-stroke:none"
       d="m 84.163873,64.521113 c 0,0 -1.500878,9.575181 -2.078843,19.326845 -0.288983,4.875833 -0.383362,9.763541 0.179875,13.962611 0.281618,2.099534 0.654535,4.022891 1.706246,6.041771 1.051712,2.01888 3.860062,4.74519 7.459685,4.74519 7.916215,0 18.501464,-1.14791 18.501464,-1.14791 l -1.30795,-11.16229 c 0,0 -7.94707,0.738746 -14.415724,0.945626 -0.08418,-0.367166 -0.130455,-0.357354 -0.195294,-0.840827 -0.383407,-2.858391 -0.374085,-7.381264 -0.10536,-11.915378 0.53746,-9.068227 1.970919,-18.312978 1.970919,-18.312978 z"
       id="path10525" />
    <path
       style="color:#000000;fill:#ffcc00;stroke:#d4aa00;stroke-width:1;-inkscape-stroke:none"
       d="m 120.52023,63.993372 -11.68418,1.808387 c 0,0 1.34734,7.943643 1.56748,15.590645 0.0821,2.850817 -0.21878,5.103319 -0.50879,7.221369 -1.02751,-2.220751 -2.06514,-5.051099 -2.82918,-8.232798 -1.76067,-7.331919 -2.45659,-14.849744 -2.45659,-14.849744 l -11.797245,0.960251 c 0,0 0.711861,8.070962 2.70841,16.385165 0.998274,4.157104 2.270872,8.389362 4.252766,12.083545 0.990949,1.84709 2.152129,3.591756 3.862179,5.122958 1.71005,1.53119 4.24287,2.87545 7.13848,2.94411 2.97818,0.0706 6.01038,-1.54158 7.60872,-3.416926 1.59836,-1.875345 2.31707,-3.841983 2.83689,-5.834612 1.03965,-3.98526 1.14491,-8.356761 1.02016,-12.690403 -0.24951,-8.66728 -1.7191,-17.091947 -1.7191,-17.091947 z"
       id="path10527" />
    <path
       style="color:#000000;fill:#ffcc00;stroke:#d4aa00;stroke-width:1;-inkscape-stroke:none"
       d="m 127.60634,58.871354 c -2.02161,0.149072 -3.81017,0.447955 -5.29606,0.823768 -2.57305,0.650777 -3.77636,2.393824 -4.33499,3.453485 -0.55863,1.059662 -0.74569,1.876679 -0.90708,2.68821 -0.32279,1.623065 -0.40059,3.23326 -0.41886,5.069338 -0.0366,3.672152 0.26857,8.112958 0.67325,12.519796 0.80937,8.81368 2.05829,17.425849 2.05829,17.425849 l 0.48207,3.49688 10.95799,-0.6332 c 5.74697,-1.51408 10.06681,-4.981328 12.72235,-8.873772 2.65552,-3.892445 4.09008,-8.253129 2.63644,-12.848818 -0.50562,-1.598554 -1.43332,-2.820396 -2.48998,-3.772756 0.54386,-0.538844 1.10648,-1.035784 1.59574,-1.686529 1.55388,-2.06674 2.74947,-5.0532 2.2536,-8.227923 -0.53743,-3.440653 -3.23755,-6.148175 -5.7663,-7.423653 -2.52874,-1.275477 -5.04621,-1.710665 -7.46741,-1.935121 -2.42117,-0.224458 -4.67746,-0.224617 -6.69905,-0.07556 z m 5.54529,11.252465 c 0.90554,0.08396 1.29733,0.254532 1.87071,0.411884 -0.42685,0.423254 -0.84403,0.866727 -1.62401,1.362384 -1.92193,1.221299 -4.49701,2.018483 -4.74102,2.15203 -0.0309,-0.943887 -0.17486,-2.248789 -0.16701,-3.036728 0.004,-0.400724 0.0404,-0.486742 0.0566,-0.835951 1.46932,-0.113098 3.18234,-0.18549 4.60481,-0.05362 z m -3.66432,15.451727 c 0.0224,-5.05e-4 0.0876,0.0089 0.11564,0.0098 0.85234,0.02836 1.99847,0.06816 3.15554,0.199849 0.80768,0.09193 1.35233,0.256891 1.91183,0.404572 -0.14178,0.683675 -0.4208,1.601628 -1.06898,2.551729 -0.77803,1.140424 -1.99046,2.119378 -3.39195,2.941678 -0.27588,-2.138472 -0.4027,-3.157017 -0.72207,-6.107576 z"
       id="path10529"
       sodipodi:nodetypes="sssscscccsscssssssccscccccccscscsc" />
    <path
       style="color:#000000;fill:#ffcc00;stroke:#d4aa00;stroke-width:1;-inkscape-stroke:none"
       d="m 195.30011,55.356002 c -0.87517,-0.06592 -1.74447,-0.02957 -2.57478,0.119414 -6.64237,1.191883 -10.33428,6.544219 -11.70474,12.609974 -1.20255,5.322524 -2.01821,14.502171 -2.68785,22.877819 -0.66964,8.375639 -1.08697,15.629641 -1.08697,15.629641 l 11.82295,0.61417 c 0,0 0.41281,-7.15642 1.07153,-15.395673 0.0142,-0.167183 0.0351,-0.265543 0.0489,-0.433818 l 10.80536,0.246154 4.2913,15.293317 0.0438,0.16328 0.002,0.005 11.44263,-2.88563 c 0,0 1e-5,-0.002 0,-0.002 l -0.007,-0.0317 c -0.0124,-0.0434 -6.47398,-23.175685 -9.38949,-36.080031 -0.90017,-3.984259 -2.35605,-7.190764 -4.87719,-9.600056 -1.89087,-1.806968 -4.57461,-2.931618 -7.20015,-3.12934 z m -0.80172,11.669223 c 0.37367,0.57795 0.87405,1.525718 1.30025,3.412052 0.64673,2.862474 1.64195,6.484181 2.50026,9.892518 l -6.81984,-0.155975 c 0.39728,-3.429086 0.76046,-8.143652 1.12037,-9.736538 0.44363,-1.963597 1.40034,-2.91432 1.89896,-3.412051 z"
       id="path9427-0" />
    <path
       style="color:#000000;fill:#ffcc00;stroke:#d4aa00;stroke-width:1;-inkscape-stroke:none"
       d="m 165.35746,58.324393 c -2.87079,-0.107636 -5.41711,0.04565 -7.62775,0.438647 l -6.70848,1.193462 7.5677,41.446448 7.94319,-3.027803 c 0,0 6.72351,-2.535808 13.37187,-6.425894 3.32416,-1.945041 6.6934,-4.195077 9.47836,-7.155075 2.78496,-2.959997 5.48737,-7.498617 4.04371,-12.669494 -1.2301,-4.405856 -4.65651,-7.391526 -8.02134,-9.20874 -3.36479,-1.817211 -6.96026,-2.797099 -10.46973,-3.455056 -3.5095,-0.65796 -6.70673,-1.028855 -9.57753,-1.136495 z m 1.89267,13.572422 c 1.6936,0.101997 3.38005,0.135124 4.99906,0.438649 2.56473,0.480835 4.92328,1.24023 6.30288,1.985304 1.09007,0.588704 1.102,0.777416 1.18067,0.917171 -0.10917,0.149605 -0.20018,0.305423 -0.68198,0.817478 -1.25593,1.334881 -3.73563,3.153631 -6.41703,4.722577 -1.20734,0.706437 -2.25416,1.145653 -3.44286,1.748893 z"
       id="path10531" />
    <path
       style="color:#000000;font-variation-settings:normal;opacity:1;vector-effect:none;fill:#ffcc00;fill-opacity:1;stroke:#d4aa00;stroke-width:1;stroke-linecap:butt;stroke-linejoin:miter;stroke-miterlimit:4;stroke-dasharray:none;stroke-dashoffset:0;stroke-opacity:1;-inkscape-stroke:none;stop-color:#000000;stop-opacity:1"
       d="m 257.21221,57.00841 -16.19212,2.191402 5.39961,27.618133 11.73301,-1.525674 z"
       id="path12190"
       sodipodi:nodetypes="ccccc" />
  </g>
  <g
     inkscape:groupmode="layer"
     id="layer3"
     inkscape:label="shplub"
     style="opacity:0.723577">
    <g
       inkscape:label="body"
       inkscape:groupmode="layer"
       id="layer1"
       style="opacity:0.9" />
    <g
       inkscape:groupmode="layer"
       id="layer2"
       inkscape:label="eyes">
      <g
         id="g12620"
         transform="matrix(0.82215056,-0.11633543,0.11858282,0.75385808,79.678675,44.558645)"
         style="stroke-width:1.25632">
        <g
           id="g12323"
           transform="translate(18.5625,56.758413)"
           style="stroke-width:1.25632">
          <path
             id="path924"
             style="opacity:1;fill:#2f9aeb;stroke:#1c5c8d;stroke-width:1.3296;stroke-linecap:round;stroke-linejoin:round;paint-order:fill markers stroke;stop-color:#000000"
             d="m 190.61021,45.846643 c 0,5.867911 -2.70949,8.01041 -10.6649,8.01041 -7.95541,0 -10.6649,-2.142499 -10.6649,-8.01041 0,-5.867911 4.77484,-10.334305 10.6649,-10.334305 5.89006,0 10.6649,4.466394 10.6649,10.334305 z"
             sodipodi:nodetypes="szsss" />
          <path
             id="path12052"
             style="opacity:1;fill:#1c5c8d;fill-opacity:1;stroke:none;stroke-width:1.3296;stroke-linecap:round;stroke-linejoin:round;paint-order:fill markers stroke;stop-color:#000000"
             d="m 190.32699,46.06848 c -0.51292,2.276245 -1.52272,3.965349 -3.15246,5.202665 -1.43533,1.089714 -3.39354,1.839299 -5.96892,2.28418 3.2533,-0.108099 5.49011,-0.637397 6.90178,-1.709148 1.54622,-1.17391 2.18656,-3.012167 2.2196,-5.777697 z"
             sodipodi:nodetypes="cscsc" />
          <path
             style="opacity:0.9;fill:#7ac1f7;fill-opacity:0.901961;stroke:none;stroke-width:0.3324px;stroke-linecap:butt;stroke-linejoin:miter;stroke-opacity:1"
             d="m 171.73113,40.717966 c -0.13723,-0.1194 0.66494,-1.397945 2.09887,-2.54162 1.46477,-1.16827 2.93387,-1.4857 2.99697,-1.277396 0.0527,0.174092 -1.2342,0.703702 -2.58363,1.792686 -1.34944,1.088983 -2.37498,2.14573 -2.51221,2.02633 z"
             id="path20323"
             inkscape:path-effect="#path-effect20325"
             inkscape:original-d="m 171.73113,40.717966 c 2.28696,-2.628533 3.95999,-3.474928 5.09584,-3.819014" />
          <path
             id="path9253"
             style="stroke-width:1.3296;stroke-linecap:round;stroke-linejoin:round;paint-order:fill markers stroke;stop-color:#000000"
             d="m 179.52101,46.401502 c 0,0.434606 -0.98495,-0.530947 -2.19995,-0.530947 -1.215,0 -2.19995,0.965554 -2.19995,0.530947 0,-0.434607 0.98495,-1.803234 2.19995,-1.803234 1.215,0 2.19995,1.368627 2.19995,1.803234 z"
             sodipodi:nodetypes="sssss" />
          <path
             id="path1838"
             style="stroke-width:1.3296;stroke-linecap:round;stroke-linejoin:round;paint-order:fill markers stroke;stop-color:#000000"
             d="m 180.36961,46.401502 c 0,0.434606 0.98495,-0.530947 2.19995,-0.530947 1.215,0 2.19995,0.965554 2.19995,0.530947 1e-5,-0.434607 -0.98495,-1.803234 -2.19995,-1.803234 -1.215,0 -2.19995,1.368627 -2.19995,1.803234 z"
             sodipodi:nodetypes="sssss" />
        </g>
      </g>
    </g>
  </g>
</svg>
